solid OpenSCAD_Model
  facet normal 0 0 -1
    outer loop
      vertex -8.09017 -5.87785 0
      vertex -8.09017 5.87785 0
      vertex -7.47777 -6.07683 0
    endloop
  endfacet
  facet normal 0 0 -1
    outer loop
      vertex -7.47777 -6.07683 0
      vertex -8.09017 5.87785 0
      vertex -7.40829 6.09941 0
    endloop
  endfacet
  facet normal 0 0 -1
    outer loop
      vertex -7.47777 -6.07683 0
      vertex -7.40829 6.09941 0
      vertex -6.74121 5.40639 0
    endloop
  endfacet
  facet normal 0 0 -1
    outer loop
      vertex -7.47777 -6.07683 0
      vertex -6.74121 5.40639 0
      vertex -1.48608 5.95893 0
    endloop
  endfacet
  facet normal 0 0 -1
    outer loop
      vertex -1.48608 5.95893 0
      vertex -0.364988 8.38792 0
      vertex 3.09017 9.51057 0
    endloop
  endfacet
  facet normal 0 0 -1
    outer loop
      vertex -1.48608 5.95893 0
      vertex 3.09017 9.51057 0
      vertex -7.47777 -6.07683 0
    endloop
  endfacet
  facet normal 0 0 -1
    outer loop
      vertex -7.47777 -6.07683 0
      vertex 3.09017 9.51057 0
      vertex 10 0 0
    endloop
  endfacet
  facet normal 0 0 -1
    outer loop
      vertex -0.0131658 -8.50223 0
      vertex 10 0 0
      vertex 3.09017 -9.51057 0
    endloop
  endfacet
  facet normal 0 0 -1
    outer loop
      vertex -0.600579 -6.78993 0
      vertex 10 0 0
      vertex -0.0131658 -8.50223 0
    endloop
  endfacet
  facet normal 0 0 -1
    outer loop
      vertex -4.28034 -4.97021 0
      vertex 10 0 0
      vertex -0.600579 -6.78993 0
    endloop
  endfacet
  facet normal 0 0 -1
    outer loop
      vertex -7.47777 -6.07683 0
      vertex 10 0 0
      vertex -4.28034 -4.97021 0
    endloop
  endfacet
  facet normal -1 0 0
    outer loop
      vertex -8.09017 -5.87785 0
      vertex -8.09017 -5.87785 0.813749
      vertex -8.09017 5.87785 0
    endloop
  endfacet
  facet normal -1 0 0
    outer loop
      vertex -8.09017 5.87785 0
      vertex -8.09017 -5.87785 0.813749
      vertex -8.09017 -5.58272 1.39818
    endloop
  endfacet
  facet normal -1 0 0
    outer loop
      vertex -8.09017 5.87785 0
      vertex -8.09017 -5.58272 1.39818
      vertex -8.09017 -3.5287 11.5912
    endloop
  endfacet
  facet normal -1 0 0
    outer loop
      vertex -8.09017 -3.5287 11.5912
      vertex -8.09017 -5.87785 11.5912
      vertex -8.09017 -5.87785 40
    endloop
  endfacet
  facet normal -1 0 0
    outer loop
      vertex -8.09017 5.87785 21.4667
      vertex -8.09017 5.87785 10.6935
      vertex -8.09017 3.39288 10.6935
    endloop
  endfacet
  facet normal -1 0 0
    outer loop
      vertex -8.09017 2.36139 30.6869
      vertex -8.09017 -5.87785 40
      vertex -8.09017 5.87785 40
    endloop
  endfacet
  facet normal -1 0 0
    outer loop
      vertex -8.09017 5.87785 25.6977
      vertex -8.09017 2.36139 30.6869
      vertex -8.09017 5.87785 40
    endloop
  endfacet
  facet normal -1 0 0
    outer loop
      vertex -8.09017 -3.5287 11.5912
      vertex -8.09017 -5.87785 40
      vertex -8.09017 -2.50718 19.5945
    endloop
  endfacet
  facet normal -1 0 0
    outer loop
      vertex -8.09017 -3.5287 11.5912
      vertex -8.09017 -2.50718 19.5945
      vertex -8.09017 5.87785 0
    endloop
  endfacet
  facet normal -1 0 0
    outer loop
      vertex -8.09017 5.87785 21.4667
      vertex -8.09017 3.39288 10.6935
      vertex -8.09017 -2.50718 19.5945
    endloop
  endfacet
  facet normal -1 0 0
    outer loop
      vertex -8.09017 5.87785 0
      vertex -8.09017 3.39288 10.6935
      vertex -8.09017 5.87785 2.91209
    endloop
  endfacet
  facet normal -1 0 0
    outer loop
      vertex -8.09017 -2.50718 19.5945
      vertex -8.09017 -5.87785 40
      vertex -8.09017 2.36139 30.6869
    endloop
  endfacet
  facet normal -1 0 0
    outer loop
      vertex -8.09017 3.39288 10.6935
      vertex -8.09017 5.87785 0
      vertex -8.09017 -2.50718 19.5945
    endloop
  endfacet
  facet normal -0.309017 -0.951056 0
    outer loop
      vertex -8.09017 -5.87785 0.813749
      vertex -8.09017 -5.87785 0
      vertex -7.47777 -6.07683 0
    endloop
  endfacet
  facet normal 0.295175 -0.852869 0.430682
    outer loop
      vertex -7.47777 -6.07683 0
      vertex -4.28034 -4.97021 0
      vertex -3.47649 -3.17706 3
    endloop
  endfacet
  facet normal 0.295175 -0.852869 0.430682
    outer loop
      vertex -5.18126 -1.52136 7.44714
      vertex -7.47777 -6.07683 0
      vertex -4.00063 -3.35846 3
    endloop
  endfacet
  facet normal 0.295175 -0.852869 0.430682
    outer loop
      vertex -4.00063 -3.35846 3
      vertex -7.47777 -6.07683 0
      vertex -3.47649 -3.17706 3
    endloop
  endfacet
  facet normal 0.295175 -0.852869 0.430682
    outer loop
      vertex -5.18126 0.272887 11.0002
      vertex -7.47777 -6.07683 0
      vertex -5.18126 -1.52136 7.44714
    endloop
  endfacet
  facet normal 0.295175 -0.852869 0.430682
    outer loop
      vertex -5.41299 0.389294 11.3896
      vertex -7.47777 -6.07683 0
      vertex -5.18126 0.272887 11.0002
    endloop
  endfacet
  facet normal 0.295175 -0.852869 0.430682
    outer loop
      vertex -8.09017 -5.58272 1.39818
      vertex -7.47777 -6.07683 0
      vertex -5.41299 0.389294 11.3896
    endloop
  endfacet
  facet normal 0.295175 -0.852869 0.430682
    outer loop
      vertex -8.09017 -5.87785 0.813749
      vertex -7.47777 -6.07683 0
      vertex -8.09017 -5.58272 1.39818
    endloop
  endfacet
  facet normal -0.370891 -0.75 0.547668
    outer loop
      vertex -0.600579 -6.78993 0
      vertex 0.203268 -4.99678 3
      vertex -3.47649 -3.17706 3
    endloop
  endfacet
  facet normal -0.370891 -0.75 0.547668
    outer loop
      vertex -4.28034 -4.97021 0
      vertex -0.600579 -6.78993 0
      vertex -3.47649 -3.17706 3
    endloop
  endfacet
  facet normal -0.863413 -0.296198 0.408393
    outer loop
      vertex 1.73018 -9.06868 3.27489
      vertex 4.45124 -2.99877 13.43
      vertex -0.0131658 -8.50223 0
    endloop
  endfacet
  facet normal -0.863413 -0.296198 0.408393
    outer loop
      vertex -0.0131658 -8.50223 0
      vertex 4.45124 -2.99877 13.43
      vertex 2.24324 -4.91201 7.37433
    endloop
  endfacet
  facet normal -0.863413 -0.296198 0.408393
    outer loop
      vertex -0.0131658 -8.50223 0
      vertex 2.24324 -4.91201 7.37433
      vertex 0.271445 -5.19551 3
    endloop
  endfacet
  facet normal -0.863413 -0.296198 0.408393
    outer loop
      vertex 0.271445 -5.19551 3
      vertex 0.203268 -4.99678 3
      vertex -0.0131658 -8.50223 0
    endloop
  endfacet
  facet normal -0.863413 -0.296198 0.408393
    outer loop
      vertex -0.0131658 -8.50223 0
      vertex 0.203268 -4.99678 3
      vertex -0.600579 -6.78993 0
    endloop
  endfacet
  facet normal -0.309017 -0.951056 0
    outer loop
      vertex -8.09017 -5.87785 40
      vertex -8.09017 -5.87785 11.5912
      vertex -7.15497 -6.18172 15.0814
    endloop
  endfacet
  facet normal -0.309017 -0.951056 0
    outer loop
      vertex 2.28923 -9.25033 10.7849
      vertex 3.09017 -9.51057 25.4848
      vertex 0.219672 -8.57788 16.7943
    endloop
  endfacet
  facet normal -0.309017 -0.951056 0
    outer loop
      vertex -3.51014 -7.366 18.4911
      vertex -8.09017 -5.87785 40
      vertex -7.15497 -6.18172 15.0814
    endloop
  endfacet
  facet normal -0.309017 -0.951056 0
    outer loop
      vertex -3.51014 -7.366 18.4911
      vertex 0.219672 -8.57788 16.7943
      vertex -8.09017 -5.87785 40
    endloop
  endfacet
  facet normal -0.309017 -0.951056 0
    outer loop
      vertex 1.73018 -9.06868 3.27489
      vertex 3.09017 -9.51057 0
      vertex 2.28923 -9.25033 10.7849
    endloop
  endfacet
  facet normal -0.309017 -0.951056 0
    outer loop
      vertex -0.0131658 -8.50223 0
      vertex 3.09017 -9.51057 0
      vertex 1.73018 -9.06868 3.27489
    endloop
  endfacet
  facet normal -0.309017 -0.951056 0
    outer loop
      vertex 3.09017 -9.51057 0
      vertex 3.09017 -9.51057 25.4848
      vertex 2.28923 -9.25033 10.7849
    endloop
  endfacet
  facet normal -0.309017 -0.951056 0
    outer loop
      vertex 0.219672 -8.57788 16.7943
      vertex 3.09017 -9.51057 25.4848
      vertex -0.590195 -8.31474 22.9559
    endloop
  endfacet
  facet normal -0.309017 -0.951056 0
    outer loop
      vertex 0.219672 -8.57788 16.7943
      vertex -3.22566 -7.45843 28.8481
      vertex -8.09017 -5.87785 40
    endloop
  endfacet
  facet normal -0.309017 -0.951056 0
    outer loop
      vertex 0.219672 -8.57788 16.7943
      vertex -0.590195 -8.31474 22.9559
      vertex -3.22566 -7.45843 28.8481
    endloop
  endfacet
  facet normal -0.309017 -0.951056 0
    outer loop
      vertex -3.22566 -7.45843 28.8481
      vertex -0.237527 -8.42933 40
      vertex -8.09017 -5.87785 40
    endloop
  endfacet
  facet normal 0.809017 -0.587785 0
    outer loop
      vertex 4.93804 -6.9672 12.9794
      vertex 3.09017 -9.51057 0
      vertex 10 0 0
    endloop
  endfacet
  facet normal 0.809017 -0.587785 0
    outer loop
      vertex 3.09017 -9.51057 25.4848
      vertex 3.09017 -9.51057 0
      vertex 4.93804 -6.9672 12.9794
    endloop
  endfacet
  facet normal 0.809017 -0.587785 0
    outer loop
      vertex 10 0 40
      vertex 7.77072 -3.06835 22.6335
      vertex 10 0 16.0654
    endloop
  endfacet
  facet normal 0.809017 -0.587785 0
    outer loop
      vertex 7.39987 -3.57877 24.4345
      vertex 4.54874 -7.50301 22.5223
      vertex 7.77072 -3.06835 22.6335
    endloop
  endfacet
  facet normal 0.809017 -0.587785 0
    outer loop
      vertex 10 0 40
      vertex 7.5521 -3.36925 33.7309
      vertex 7.77072 -3.06835 22.6335
    endloop
  endfacet
  facet normal 0.809017 -0.587785 0
    outer loop
      vertex 7.5521 -3.36925 33.7309
      vertex 7.39987 -3.57877 24.4345
      vertex 7.77072 -3.06835 22.6335
    endloop
  endfacet
  facet normal 0.809017 -0.587785 0
    outer loop
      vertex 4.93804 -6.9672 12.9794
      vertex 7.77072 -3.06835 22.6335
      vertex 4.54874 -7.50301 22.5223
    endloop
  endfacet
  facet normal 0.809017 -0.587785 0
    outer loop
      vertex 5.8286 -5.74144 40
      vertex 7.5521 -3.36925 33.7309
      vertex 10 0 40
    endloop
  endfacet
  facet normal 0.809017 -0.587785 0
    outer loop
      vertex 4.93804 -6.9672 12.9794
      vertex 4.54874 -7.50301 22.5223
      vertex 3.09017 -9.51057 25.4848
    endloop
  endfacet
  facet normal 0.809017 -0.587785 0
    outer loop
      vertex 10 0 12.3517
      vertex 4.93804 -6.9672 12.9794
      vertex 10 0 0
    endloop
  endfacet
  facet normal 0.809017 0.587785 0
    outer loop
      vertex 10 0 0
      vertex 3.09017 9.51057 0
      vertex 3.09017 9.51057 24.8221
    endloop
  endfacet
  facet normal 0.809017 0.587785 0
    outer loop
      vertex 7.81293 3.01025 13.9672
      vertex 10 0 0
      vertex 5.32674 6.43219 22.121
    endloop
  endfacet
  facet normal 0.809017 0.587785 0
    outer loop
      vertex 5.32674 6.43219 22.121
      vertex 10 0 0
      vertex 3.09017 9.51057 24.8221
    endloop
  endfacet
  facet normal 0.809017 0.587785 0
    outer loop
      vertex 10 0 40
      vertex 7.79596 3.0336 31.3363
      vertex 6.32968 5.05177 39.5971
    endloop
  endfacet
  facet normal 0.809017 0.587785 0
    outer loop
      vertex 10 0 40
      vertex 6.32968 5.05177 39.5971
      vertex 6.14467 5.30641 40
    endloop
  endfacet
  facet normal 0.809017 0.587785 0
    outer loop
      vertex 10 0 40
      vertex 10 0 16.0654
      vertex 7.79596 3.0336 31.3363
    endloop
  endfacet
  facet normal 0.809017 0.587785 0
    outer loop
      vertex 7.39987 3.57877 24.4345
      vertex 7.81293 3.01025 13.9672
      vertex 5.32674 6.43219 22.121
    endloop
  endfacet
  facet normal 0.809017 0.587785 0
    outer loop
      vertex 7.81293 3.01025 13.9672
      vertex 10 0 12.3517
      vertex 10 0 0
    endloop
  endfacet
  facet normal 0.809017 0.587785 0
    outer loop
      vertex 10 0 16.0654
      vertex 7.39987 3.57877 24.4345
      vertex 7.79596 3.0336 31.3363
    endloop
  endfacet
  facet normal 0.809017 0.587785 0
    outer loop
      vertex 10 0 16.0654
      vertex 7.81293 3.01025 13.9672
      vertex 7.39987 3.57877 24.4345
    endloop
  endfacet
  facet normal -0.309017 0.951056 0
    outer loop
      vertex -8.09017 5.87785 10.6935
      vertex -8.09017 5.87785 21.4667
      vertex -6.71004 6.32628 15.8442
    endloop
  endfacet
  facet normal -0.309017 0.951056 0
    outer loop
      vertex -2.07661 7.83178 23.8411
      vertex -4.2287 7.13252 20.0813
      vertex -3.15439 7.48158 30.0118
    endloop
  endfacet
  facet normal -0.309017 0.951056 0
    outer loop
      vertex -6.71004 6.32628 15.8442
      vertex -8.09017 5.87785 21.4667
      vertex -4.2287 7.13252 20.0813
    endloop
  endfacet
  facet normal -0.309017 0.951056 0
    outer loop
      vertex -8.09017 5.87785 25.6977
      vertex -8.09017 5.87785 40
      vertex -4.2287 7.13252 20.0813
    endloop
  endfacet
  facet normal -0.309017 0.951056 0
    outer loop
      vertex -8.09017 5.87785 40
      vertex -0.237918 8.4292 40
      vertex -0.667673 8.28957 39.2924
    endloop
  endfacet
  facet normal -0.309017 0.951056 0
    outer loop
      vertex -8.09017 5.87785 40
      vertex -0.667673 8.28957 39.2924
      vertex -3.15439 7.48158 30.0118
    endloop
  endfacet
  facet normal -0.309017 0.951056 0
    outer loop
      vertex -8.09017 5.87785 40
      vertex -3.15439 7.48158 30.0118
      vertex -4.2287 7.13252 20.0813
    endloop
  endfacet
  facet normal -0.309017 0.951056 0
    outer loop
      vertex 1.73018 9.06868 3.27489
      vertex 3.09017 9.51057 0
      vertex -0.364988 8.38792 0
    endloop
  endfacet
  facet normal -0.309017 0.951056 0
    outer loop
      vertex 3.09017 9.51057 24.8221
      vertex 3.09017 9.51057 0
      vertex 1.73018 9.06868 3.27489
    endloop
  endfacet
  facet normal -0.309017 0.951056 0
    outer loop
      vertex 3.09017 9.51057 24.8221
      vertex 1.73018 9.06868 3.27489
      vertex 1.94503 9.13849 12.8051
    endloop
  endfacet
  facet normal -0.309017 0.951056 0
    outer loop
      vertex 3.09017 9.51057 24.8221
      vertex 1.94503 9.13849 12.8051
      vertex -1.81122 7.91801 18.399
    endloop
  endfacet
  facet normal -0.309017 0.951056 0
    outer loop
      vertex -4.2287 7.13252 20.0813
      vertex -2.07661 7.83178 23.8411
      vertex 2.06136 9.17629 23.6676
    endloop
  endfacet
  facet normal -0.309017 0.951056 0
    outer loop
      vertex -6.71004 6.32628 15.8442
      vertex -4.2287 7.13252 20.0813
      vertex 2.06136 9.17629 23.6676
    endloop
  endfacet
  facet normal -0.309017 0.951056 0
    outer loop
      vertex 2.06136 9.17629 23.6676
      vertex 3.09017 9.51057 24.8221
      vertex -1.81122 7.91801 18.399
    endloop
  endfacet
  facet normal -0.309017 0.951056 0
    outer loop
      vertex -6.71004 6.32628 15.8442
      vertex 2.06136 9.17629 23.6676
      vertex -1.81122 7.91801 18.399
    endloop
  endfacet
  facet normal -0.81412 0.375755 0.442738
    outer loop
      vertex 1.73018 9.06868 3.27489
      vertex 2.24324 4.91201 7.74612
      vertex 4.45124 2.99877 13.43
    endloop
  endfacet
  facet normal -0.81412 0.375755 0.442738
    outer loop
      vertex -0.177189 5.26002 3
      vertex 2.24324 4.91201 7.74612
      vertex 1.73018 9.06868 3.27489
    endloop
  endfacet
  facet normal -0.81412 0.375755 0.442738
    outer loop
      vertex -0.177189 5.26002 3
      vertex 1.73018 9.06868 3.27489
      vertex -0.364988 8.38792 0
    endloop
  endfacet
  facet normal -0.81412 0.375755 0.442738
    outer loop
      vertex -0.177189 5.26002 3
      vertex -0.364988 8.38792 0
      vertex -0.682232 4.16578 3
    endloop
  endfacet
  facet normal -0.81412 0.375755 0.442738
    outer loop
      vertex -0.364988 8.38792 0
      vertex -1.48608 5.95893 0
      vertex -0.682232 4.16578 3
    endloop
  endfacet
  facet normal -0.088774 0.844312 0.528447
    outer loop
      vertex -3.68468 3.85009 3
      vertex -0.682232 4.16578 3
      vertex -1.48608 5.95893 0
    endloop
  endfacet
  facet normal -0.088774 0.844312 0.528447
    outer loop
      vertex -3.68468 3.85009 3
      vertex -1.48608 5.95893 0
      vertex -6.74121 5.40639 0
    endloop
  endfacet
  facet normal -0.088774 0.844312 0.528447
    outer loop
      vertex -3.68468 3.85009 3
      vertex -6.74121 5.40639 0
      vertex -5.07425 1.68788 6.22119
    endloop
  endfacet
  facet normal 0.703421 0.677086 0.216225
    outer loop
      vertex -6.49819 -0.15836 16.6349
      vertex -5.41299 0.389294 11.3896
      vertex -5.18126 1.52136 7.09077
    endloop
  endfacet
  facet normal 0.703421 0.677086 0.216225
    outer loop
      vertex -5.18126 1.52136 7.09077
      vertex -5.41299 0.389294 11.3896
      vertex -5.18126 0.272887 11.0002
    endloop
  endfacet
  facet normal 0.703421 0.677086 0.216225
    outer loop
      vertex -6.49819 -0.15836 16.6349
      vertex -5.18126 1.52136 7.09077
      vertex -5.07425 1.68788 6.22119
    endloop
  endfacet
  facet normal 0.703421 0.677086 0.216225
    outer loop
      vertex -6.74121 5.40639 0
      vertex -6.49819 -0.15836 16.6349
      vertex -5.07425 1.68788 6.22119
    endloop
  endfacet
  facet normal 0.703421 0.677086 0.216225
    outer loop
      vertex -7.40829 6.09941 0
      vertex -6.49819 -0.15836 16.6349
      vertex -6.74121 5.40639 0
    endloop
  endfacet
  facet normal 0.703421 0.677086 0.216225
    outer loop
      vertex -8.09017 5.87785 2.91209
      vertex -6.49819 -0.15836 16.6349
      vertex -7.40829 6.09941 0
    endloop
  endfacet
  facet normal 0.703421 0.677086 0.216225
    outer loop
      vertex -8.09017 3.39288 10.6935
      vertex -6.49819 -0.15836 16.6349
      vertex -8.09017 5.87785 2.91209
    endloop
  endfacet
  facet normal -0.309017 0.951056 0
    outer loop
      vertex -7.40829 6.09941 0
      vertex -8.09017 5.87785 0
      vertex -8.09017 5.87785 2.91209
    endloop
  endfacet
  facet normal 0.965926 -3.636e-018 -0.258819
    outer loop
      vertex -8.09017 5.87785 10.6935
      vertex -6.71004 6.32628 15.8442
      vertex -5.6101 3.87262 19.9493
    endloop
  endfacet
  facet normal 0.965926 -3.636e-018 -0.258819
    outer loop
      vertex -6.49819 -0.15836 16.6349
      vertex -8.09017 5.87785 10.6935
      vertex -5.73497 1.54417 19.4833
    endloop
  endfacet
  facet normal 0.965926 -3.636e-018 -0.258819
    outer loop
      vertex -5.73497 1.54417 19.4833
      vertex -8.09017 5.87785 10.6935
      vertex -5.6101 3.87262 19.9493
    endloop
  endfacet
  facet normal 0.965926 -3.636e-018 -0.258819
    outer loop
      vertex -8.09017 3.39288 10.6935
      vertex -8.09017 5.87785 10.6935
      vertex -6.49819 -0.15836 16.6349
    endloop
  endfacet
  facet normal 0.387978 -0.200845 0.899519
    outer loop
      vertex -5.6101 3.87262 19.9493
      vertex -5.96887 1.2033 19.508
      vertex -5.73497 1.54417 19.4833
    endloop
  endfacet
  facet normal 0.387978 -0.200845 0.899519
    outer loop
      vertex -8.09017 5.87785 21.4667
      vertex -5.96887 1.2033 19.508
      vertex -5.6101 3.87262 19.9493
    endloop
  endfacet
  facet normal 0.387978 -0.200845 0.899519
    outer loop
      vertex -6.20252 -3.15339 18.636
      vertex -5.96887 1.2033 19.508
      vertex -8.09017 5.87785 21.4667
    endloop
  endfacet
  facet normal 0.387978 -0.200845 0.899519
    outer loop
      vertex -4.2287 7.13252 20.0813
      vertex -5.6101 3.87262 19.9493
      vertex -2.65275 6.59302 19.2812
    endloop
  endfacet
  facet normal 0.387978 -0.200845 0.899519
    outer loop
      vertex -8.09017 5.87785 21.4667
      vertex -5.6101 3.87262 19.9493
      vertex -4.2287 7.13252 20.0813
    endloop
  endfacet
  facet normal 0.387978 -0.200845 0.899519
    outer loop
      vertex -8.09017 -2.50718 19.5945
      vertex -6.20252 -3.15339 18.636
      vertex -8.09017 5.87785 21.4667
    endloop
  endfacet
  facet normal 0.108754 0.910251 -0.399519
    outer loop
      vertex -5.18126 1.36557 29.2099
      vertex -5.18126 -1.52136 22.6324
      vertex -8.09017 2.36139 30.6869
    endloop
  endfacet
  facet normal 0.108754 0.910251 -0.399519
    outer loop
      vertex -8.09017 2.36139 30.6869
      vertex -5.18126 -1.52136 22.6324
      vertex -5.15485 -1.56245 22.546
    endloop
  endfacet
  facet normal 0.108754 0.910251 -0.399519
    outer loop
      vertex -8.09017 2.36139 30.6869
      vertex -5.15485 -1.56245 22.546
      vertex -6.20252 -3.15339 18.636
    endloop
  endfacet
  facet normal 0.108754 0.910251 -0.399519
    outer loop
      vertex -8.09017 2.36139 30.6869
      vertex -6.20252 -3.15339 18.636
      vertex -8.09017 -2.50718 19.5945
    endloop
  endfacet
  facet normal -0.496732 -0.709406 -0.5
    outer loop
      vertex -8.09017 5.87785 25.6977
      vertex -4.2287 7.13252 20.0813
      vertex -2.65275 6.59302 19.2812
    endloop
  endfacet
  facet normal -0.496732 -0.709406 -0.5
    outer loop
      vertex -2.9498 5.88395 20.5823
      vertex -8.09017 5.87785 25.6977
      vertex -2.65275 6.59302 19.2812
    endloop
  endfacet
  facet normal -0.496732 -0.709406 -0.5
    outer loop
      vertex -2.59006 5.85134 20.2712
      vertex -2.9498 5.88395 20.5823
      vertex -2.65275 6.59302 19.2812
    endloop
  endfacet
  facet normal -0.496732 -0.709406 -0.5
    outer loop
      vertex -4.23777 2.98946 25.9686
      vertex -8.09017 5.87785 25.6977
      vertex -4.61096 4.23241 24.5758
    endloop
  endfacet
  facet normal -0.496732 -0.709406 -0.5
    outer loop
      vertex -5.18126 1.52136 28.9889
      vertex -8.09017 5.87785 25.6977
      vertex -4.23777 2.98946 25.9686
    endloop
  endfacet
  facet normal -0.496732 -0.709406 -0.5
    outer loop
      vertex -5.18126 1.36557 29.2099
      vertex -8.09017 5.87785 25.6977
      vertex -5.18126 1.52136 28.9889
    endloop
  endfacet
  facet normal -0.496732 -0.709406 -0.5
    outer loop
      vertex -8.09017 2.36139 30.6869
      vertex -8.09017 5.87785 25.6977
      vertex -5.18126 1.36557 29.2099
    endloop
  endfacet
  facet normal -0.496732 -0.709406 -0.5
    outer loop
      vertex -2.9498 5.88395 20.5823
      vertex -4.61096 4.23241 24.5758
      vertex -8.09017 5.87785 25.6977
    endloop
  endfacet
  facet normal 0 0 1
    outer loop
      vertex -8.09017 5.87785 40
      vertex -8.09017 -5.87785 40
      vertex -0.237527 -8.42933 40
    endloop
  endfacet
  facet normal 0 0 1
    outer loop
      vertex 3.97676 -4.9933 40
      vertex -8.09017 5.87785 40
      vertex -0.237527 -8.11202 40
    endloop
  endfacet
  facet normal 0 0 1
    outer loop
      vertex -0.237527 -8.11202 40
      vertex -8.09017 5.87785 40
      vertex -0.237527 -8.42933 40
    endloop
  endfacet
  facet normal 0 0 1
    outer loop
      vertex 5.8286 -5.74144 40
      vertex -8.09017 5.87785 40
      vertex 3.97676 -4.9933 40
    endloop
  endfacet
  facet normal 0 0 1
    outer loop
      vertex 10 0 40
      vertex -8.09017 5.87785 40
      vertex 5.8286 -5.74144 40
    endloop
  endfacet
  facet normal 0 0 1
    outer loop
      vertex 6.14467 5.30641 40
      vertex -8.09017 5.87785 40
      vertex 10 0 40
    endloop
  endfacet
  facet normal 0 0 1
    outer loop
      vertex 2.25316 5.49024 40
      vertex -8.09017 5.87785 40
      vertex 6.14467 5.30641 40
    endloop
  endfacet
  facet normal 0 0 1
    outer loop
      vertex -0.237918 8.4292 40
      vertex -8.09017 5.87785 40
      vertex 2.25316 5.49024 40
    endloop
  endfacet
  facet normal 0.965926 3.636e-018 -0.258819
    outer loop
      vertex -5.15485 -1.56245 22.546
      vertex -5.11324 -1.6272 22.7013
      vertex -6.20252 -3.15339 18.636
    endloop
  endfacet
  facet normal 0.965926 3.636e-018 -0.258819
    outer loop
      vertex -8.09017 -3.5287 11.5912
      vertex -5.96887 1.2033 19.508
      vertex -6.20252 -3.15339 18.636
    endloop
  endfacet
  facet normal 0.965926 3.636e-018 -0.258819
    outer loop
      vertex -7.15497 -6.18172 15.0814
      vertex -8.09017 -3.5287 11.5912
      vertex -6.20252 -3.15339 18.636
    endloop
  endfacet
  facet normal 0.965926 3.636e-018 -0.258819
    outer loop
      vertex -5.11324 -1.6272 22.7013
      vertex -7.15497 -6.18172 15.0814
      vertex -6.20252 -3.15339 18.636
    endloop
  endfacet
  facet normal 0.965926 3.636e-018 -0.258819
    outer loop
      vertex -7.15497 -6.18172 15.0814
      vertex -8.09017 -5.87785 11.5912
      vertex -8.09017 -3.5287 11.5912
    endloop
  endfacet
  facet normal 0.823125 -0.55667 0.112176
    outer loop
      vertex -5.96887 1.2033 19.508
      vertex -6.49819 -0.15836 16.6349
      vertex -5.73497 1.54417 19.4833
    endloop
  endfacet
  facet normal 0.823125 -0.55667 0.112176
    outer loop
      vertex -8.09017 -3.5287 11.5912
      vertex -6.49819 -0.15836 16.6349
      vertex -5.96887 1.2033 19.508
    endloop
  endfacet
  facet normal 0.823125 -0.55667 0.112176
    outer loop
      vertex -5.41299 0.389294 11.3896
      vertex -6.49819 -0.15836 16.6349
      vertex -8.09017 -3.5287 11.5912
    endloop
  endfacet
  facet normal 0.823125 -0.55667 0.112176
    outer loop
      vertex -8.09017 -5.58272 1.39818
      vertex -5.41299 0.389294 11.3896
      vertex -8.09017 -3.5287 11.5912
    endloop
  endfacet
  facet normal 1 0 0
    outer loop
      vertex -5.18126 1.52136 3
      vertex -5.18126 1.52136 7.09077
      vertex -5.18126 0.272887 11.0002
    endloop
  endfacet
  facet normal 1 0 0
    outer loop
      vertex -5.18126 -1.52136 3
      vertex -5.18126 1.52136 3
      vertex -5.18126 -1.52136 7.44714
    endloop
  endfacet
  facet normal 1 0 0
    outer loop
      vertex -5.18126 -1.52136 7.44714
      vertex -5.18126 1.52136 3
      vertex -5.18126 0.272887 11.0002
    endloop
  endfacet
  facet normal 0.841254 0.540641 0
    outer loop
      vertex -5.18126 -1.52136 7.44714
      vertex -4.00063 -3.35846 3
      vertex -5.18126 -1.52136 3
    endloop
  endfacet
  facet normal 0 0 1
    outer loop
      vertex 2.24324 -4.91201 3
      vertex -3.47649 -3.17706 3
      vertex 0.203268 -4.99678 3
    endloop
  endfacet
  facet normal 0 0 1
    outer loop
      vertex -0.682232 4.16578 3
      vertex -3.68468 3.85009 3
      vertex -4.00063 -3.35846 3
    endloop
  endfacet
  facet normal 0 0 1
    outer loop
      vertex -4.00063 -3.35846 3
      vertex -3.47649 -3.17706 3
      vertex 5.4 0 3
    endloop
  endfacet
  facet normal 0 0 1
    outer loop
      vertex 0.271445 -5.19551 3
      vertex 2.24324 -4.91201 3
      vertex 0.203268 -4.99678 3
    endloop
  endfacet
  facet normal 0 0 1
    outer loop
      vertex 2.24324 -4.91201 3
      vertex 4.54277 -2.91946 3
      vertex -3.47649 -3.17706 3
    endloop
  endfacet
  facet normal 0 0 1
    outer loop
      vertex 4.54277 -2.91946 3
      vertex 5.4 0 3
      vertex -3.47649 -3.17706 3
    endloop
  endfacet
  facet normal 0 0 1
    outer loop
      vertex 5.4 0 3
      vertex 4.54277 2.91946 3
      vertex -4.00063 -3.35846 3
    endloop
  endfacet
  facet normal 0 0 1
    outer loop
      vertex 4.54277 2.91946 3
      vertex 2.24324 4.91201 3
      vertex -4.00063 -3.35846 3
    endloop
  endfacet
  facet normal 0 0 1
    outer loop
      vertex 2.24324 4.91201 3
      vertex -0.177189 5.26002 3
      vertex -4.00063 -3.35846 3
    endloop
  endfacet
  facet normal 0 0 1
    outer loop
      vertex -0.177189 5.26002 3
      vertex -0.682232 4.16578 3
      vertex -4.00063 -3.35846 3
    endloop
  endfacet
  facet normal 0 0 1
    outer loop
      vertex -3.68468 3.85009 3
      vertex -5.18126 1.52136 3
      vertex -4.00063 -3.35846 3
    endloop
  endfacet
  facet normal 0 0 1
    outer loop
      vertex -5.18126 1.52136 3
      vertex -5.18126 -1.52136 3
      vertex -4.00063 -3.35846 3
    endloop
  endfacet
  facet normal -0.142315 0.989821 0
    outer loop
      vertex 2.24324 -4.91201 7.37433
      vertex 2.24324 -4.91201 3
      vertex 0.271445 -5.19551 3
    endloop
  endfacet
  facet normal -0.654861 0.75575 0
    outer loop
      vertex 4.45124 -2.99877 13.43
      vertex 4.52179 -2.93764 14.0586
      vertex 4.54277 -2.91946 14.0537
    endloop
  endfacet
  facet normal -0.654861 0.75575 0
    outer loop
      vertex 4.45124 -2.99877 13.43
      vertex 4.54277 -2.91946 14.0537
      vertex 4.54277 -2.91946 3
    endloop
  endfacet
  facet normal -0.654861 0.75575 0
    outer loop
      vertex 4.45124 -2.99877 13.43
      vertex 4.54277 -2.91946 3
      vertex 2.24324 -4.91201 7.37433
    endloop
  endfacet
  facet normal -0.654861 0.75575 0
    outer loop
      vertex 4.54277 -2.91946 3
      vertex 2.24324 -4.91201 3
      vertex 2.24324 -4.91201 7.37433
    endloop
  endfacet
  facet normal -0.951934 0.296198 0.0780272
    outer loop
      vertex 4.5871 -4.12445 19.3607
      vertex 3.4064 -6.44286 13.7571
      vertex 2.28923 -9.25033 10.7849
    endloop
  endfacet
  facet normal -0.951934 0.296198 0.0780272
    outer loop
      vertex 2.28923 -9.25033 10.7849
      vertex 3.4064 -6.44286 13.7571
      vertex 4.52179 -2.93764 14.0586
    endloop
  endfacet
  facet normal -0.951934 0.296198 0.0780272
    outer loop
      vertex 2.28923 -9.25033 10.7849
      vertex 4.52179 -2.93764 14.0586
      vertex 4.45124 -2.99877 13.43
    endloop
  endfacet
  facet normal -0.951934 0.296198 0.0780272
    outer loop
      vertex 2.28923 -9.25033 10.7849
      vertex 4.45124 -2.99877 13.43
      vertex 1.73018 -9.06868 3.27489
    endloop
  endfacet
  facet normal 0.965926 -3.636e-018 -0.258819
    outer loop
      vertex -0.237527 -8.11202 40
      vertex -3.53625 -4.08105 27.689
      vertex -1.66056 -4.93765 34.6892
    endloop
  endfacet
  facet normal 0.965926 -3.636e-018 -0.258819
    outer loop
      vertex -0.237527 -8.42933 40
      vertex -3.53625 -4.08105 27.689
      vertex -0.237527 -8.11202 40
    endloop
  endfacet
  facet normal 0.965926 -3.636e-018 -0.258819
    outer loop
      vertex -4.8966 -1.9643 22.6121
      vertex -3.53625 -4.08105 27.689
      vertex -3.22566 -7.45843 28.8481
    endloop
  endfacet
  facet normal 0.965926 -3.636e-018 -0.258819
    outer loop
      vertex -3.22566 -7.45843 28.8481
      vertex -3.53625 -4.08105 27.689
      vertex -0.237527 -8.42933 40
    endloop
  endfacet
  facet normal 0.965926 -3.636e-018 -0.258819
    outer loop
      vertex -5.29261 -2.84767 21.1342
      vertex -4.8966 -1.9643 22.6121
      vertex -3.22566 -7.45843 28.8481
    endloop
  endfacet
  facet normal 0.703421 0.677086 0.216225
    outer loop
      vertex -3.22566 -7.45843 28.8481
      vertex -0.590195 -8.31474 22.9559
      vertex -1.38277 -6.54674 19.998
    endloop
  endfacet
  facet normal 0.703421 0.677086 0.216225
    outer loop
      vertex -5.29261 -2.84767 21.1342
      vertex -3.22566 -7.45843 28.8481
      vertex -2.72326 -5.61071 21.4278
    endloop
  endfacet
  facet normal 0.703421 0.677086 0.216225
    outer loop
      vertex -2.72326 -5.61071 21.4278
      vertex -3.22566 -7.45843 28.8481
      vertex -1.38277 -6.54674 19.998
    endloop
  endfacet
  facet normal -0.088774 0.844312 0.528447
    outer loop
      vertex 3.09017 -9.51057 25.4848
      vertex 4.54874 -7.50301 22.5223
      vertex -0.590195 -8.31474 22.9559
    endloop
  endfacet
  facet normal -0.088774 0.844312 0.528447
    outer loop
      vertex -0.590195 -8.31474 22.9559
      vertex 4.54874 -7.50301 22.5223
      vertex 3.52536 -5.22013 18.7029
    endloop
  endfacet
  facet normal -0.088774 0.844312 0.528447
    outer loop
      vertex -0.590195 -8.31474 22.9559
      vertex 3.52536 -5.22013 18.7029
      vertex 1.16215 -6.47549 20.3116
    endloop
  endfacet
  facet normal -0.088774 0.844312 0.528447
    outer loop
      vertex -0.590195 -8.31474 22.9559
      vertex 1.16215 -6.47549 20.3116
      vertex -1.38277 -6.54674 19.998
    endloop
  endfacet
  facet normal -0.595035 0.75 -0.288849
    outer loop
      vertex 3.52536 -5.22013 18.7029
      vertex 4.60418 -3.99926 19.6505
      vertex 4.5871 -4.12445 19.3607
    endloop
  endfacet
  facet normal -0.595035 0.75 -0.288849
    outer loop
      vertex 3.52536 -5.22013 18.7029
      vertex 4.5871 -4.12445 19.3607
      vertex 2.28923 -9.25033 10.7849
    endloop
  endfacet
  facet normal -0.595035 0.75 -0.288849
    outer loop
      vertex 3.52536 -5.22013 18.7029
      vertex 2.28923 -9.25033 10.7849
      vertex 1.16215 -6.47549 20.3116
    endloop
  endfacet
  facet normal -0.595035 0.75 -0.288849
    outer loop
      vertex 2.28923 -9.25033 10.7849
      vertex 0.219672 -8.57788 16.7943
      vertex 1.16215 -6.47549 20.3116
    endloop
  endfacet
  facet normal 0.0402877 0.852869 -0.520569
    outer loop
      vertex -1.38277 -6.54674 19.998
      vertex 1.16215 -6.47549 20.3116
      vertex 0.219672 -8.57788 16.7943
    endloop
  endfacet
  facet normal 0.0402877 0.852869 -0.520569
    outer loop
      vertex -1.38277 -6.54674 19.998
      vertex 0.219672 -8.57788 16.7943
      vertex -2.72326 -5.61071 21.4278
    endloop
  endfacet
  facet normal 0.0402877 0.852869 -0.520569
    outer loop
      vertex 0.219672 -8.57788 16.7943
      vertex -3.51014 -7.366 18.4911
      vertex -2.72326 -5.61071 21.4278
    endloop
  endfacet
  facet normal 0.656759 0.55667 -0.508709
    outer loop
      vertex -5.11324 -1.6272 22.7013
      vertex -4.8966 -1.9643 22.6121
      vertex -5.29261 -2.84767 21.1342
    endloop
  endfacet
  facet normal 0.656759 0.55667 -0.508709
    outer loop
      vertex -7.15497 -6.18172 15.0814
      vertex -5.11324 -1.6272 22.7013
      vertex -5.29261 -2.84767 21.1342
    endloop
  endfacet
  facet normal 0.656759 0.55667 -0.508709
    outer loop
      vertex -2.72326 -5.61071 21.4278
      vertex -3.51014 -7.366 18.4911
      vertex -5.29261 -2.84767 21.1342
    endloop
  endfacet
  facet normal 0.656759 0.55667 -0.508709
    outer loop
      vertex -3.51014 -7.366 18.4911
      vertex -7.15497 -6.18172 15.0814
      vertex -5.29261 -2.84767 21.1342
    endloop
  endfacet
  facet normal -0.81412 0.375755 0.442738
    outer loop
      vertex 7.39987 -3.57877 24.4345
      vertex 6.99346 -2.80227 23.0281
      vertex 4.54874 -7.50301 22.5223
    endloop
  endfacet
  facet normal -0.81412 0.375755 0.442738
    outer loop
      vertex 7.39987 -3.57877 24.4345
      vertex 6.94594 -2.56618 22.7404
      vertex 6.99346 -2.80227 23.0281
    endloop
  endfacet
  facet normal -0.81412 0.375755 0.442738
    outer loop
      vertex 4.54874 -7.50301 22.5223
      vertex 4.60418 -3.99926 19.6505
      vertex 3.52536 -5.22013 18.7029
    endloop
  endfacet
  facet normal -0.81412 0.375755 0.442738
    outer loop
      vertex 4.60418 -3.99926 19.6505
      vertex 4.54874 -7.50301 22.5223
      vertex 6.99346 -2.80227 23.0281
    endloop
  endfacet
  facet normal -0.926418 -0.375755 0.023638
    outer loop
      vertex 7.39987 -3.57877 24.4345
      vertex 7.5521 -3.36925 33.7309
      vertex 6.94594 -2.56618 22.7404
    endloop
  endfacet
  facet normal -0.926418 -0.375755 0.023638
    outer loop
      vertex 6.94594 -2.56618 22.7404
      vertex 7.5521 -3.36925 33.7309
      vertex 5.95359 0.196552 27.7652
    endloop
  endfacet
  facet normal -0.926418 -0.375755 0.023638
    outer loop
      vertex 6.94594 -2.56618 22.7404
      vertex 5.95359 0.196552 27.7652
      vertex 6.19227 -0.543774 25.3513
    endloop
  endfacet
  facet normal -0.926418 -0.375755 0.023638
    outer loop
      vertex 6.94594 -2.56618 22.7404
      vertex 6.19227 -0.543774 25.3513
      vertex 5.90468 -0.149569 20.3461
    endloop
  endfacet
  facet normal -0.341104 -0.844312 -0.413261
    outer loop
      vertex 5.95359 0.196552 27.7652
      vertex 4.54277 -2.91946 35.2959
      vertex 5.4 0 28.6237
    endloop
  endfacet
  facet normal -0.341104 -0.844312 -0.413261
    outer loop
      vertex 3.88625 -3.48834 37
      vertex 4.54277 -2.91946 35.2959
      vertex 7.5521 -3.36925 33.7309
    endloop
  endfacet
  facet normal -0.341104 -0.844312 -0.413261
    outer loop
      vertex 5.38659 0.0456684 28.5415
      vertex 5.95359 0.196552 27.7652
      vertex 5.4 0 28.6237
    endloop
  endfacet
  facet normal -0.341104 -0.844312 -0.413261
    outer loop
      vertex 5.95359 0.196552 27.7652
      vertex 7.5521 -3.36925 33.7309
      vertex 4.54277 -2.91946 35.2959
    endloop
  endfacet
  facet normal -0.341104 -0.844312 -0.413261
    outer loop
      vertex 7.5521 -3.36925 33.7309
      vertex 5.8286 -5.74144 40
      vertex 3.88625 -3.48834 37
    endloop
  endfacet
  facet normal -0.341104 -0.844312 -0.413261
    outer loop
      vertex 5.8286 -5.74144 40
      vertex 3.97676 -4.9933 40
      vertex 3.88625 -3.48834 37
    endloop
  endfacet
  facet normal -0.341104 -0.844312 -0.413261
    outer loop
      vertex 3.97676 -4.9933 40
      vertex 3.17291 -3.20014 37
      vertex 3.88625 -3.48834 37
    endloop
  endfacet
  facet normal -0.496732 -0.709406 -0.5
    outer loop
      vertex 7.81293 3.01025 13.9672
      vertex 10 0 16.0654
      vertex 7.77072 -3.06835 22.6335
    endloop
  endfacet
  facet normal -0.496732 -0.709406 -0.5
    outer loop
      vertex 6.94594 -2.56618 22.7404
      vertex 7.81293 3.01025 13.9672
      vertex 6.99346 -2.80227 23.0281
    endloop
  endfacet
  facet normal -0.496732 -0.709406 -0.5
    outer loop
      vertex 6.99346 -2.80227 23.0281
      vertex 7.81293 3.01025 13.9672
      vertex 7.77072 -3.06835 22.6335
    endloop
  endfacet
  facet normal -0.496732 -0.709406 -0.5
    outer loop
      vertex 5.90468 -0.149569 20.3461
      vertex 7.81293 3.01025 13.9672
      vertex 6.94594 -2.56618 22.7404
    endloop
  endfacet
  facet normal -0.496732 -0.709406 -0.5
    outer loop
      vertex 6.02308 0.507531 19.2962
      vertex 7.81293 3.01025 13.9672
      vertex 5.90468 -0.149569 20.3461
    endloop
  endfacet
  facet normal -0.496732 -0.709406 -0.5
    outer loop
      vertex 4.95371 2.05746 18.1595
      vertex 7.81293 3.01025 13.9672
      vertex 6.02308 0.507531 19.2962
    endloop
  endfacet
  facet normal -0.496732 -0.709406 -0.5
    outer loop
      vertex 3.97742 4.32328 15.9147
      vertex 7.81293 3.01025 13.9672
      vertex 4.95371 2.05746 18.1595
    endloop
  endfacet
  facet normal 0.108754 0.910251 -0.399519
    outer loop
      vertex 4.60418 -3.99926 19.6505
      vertex 6.99346 -2.80227 23.0281
      vertex 4.5871 -4.12445 19.3607
    endloop
  endfacet
  facet normal 0.108754 0.910251 -0.399519
    outer loop
      vertex 4.5871 -4.12445 19.3607
      vertex 6.99346 -2.80227 23.0281
      vertex 7.77072 -3.06835 22.6335
    endloop
  endfacet
  facet normal 0.108754 0.910251 -0.399519
    outer loop
      vertex 4.5871 -4.12445 19.3607
      vertex 7.77072 -3.06835 22.6335
      vertex 4.93804 -6.9672 12.9794
    endloop
  endfacet
  facet normal 0.108754 0.910251 -0.399519
    outer loop
      vertex 4.5871 -4.12445 19.3607
      vertex 4.93804 -6.9672 12.9794
      vertex 3.4064 -6.44286 13.7571
    endloop
  endfacet
  facet normal 0.387978 -0.200845 0.899519
    outer loop
      vertex 4.93804 -6.9672 12.9794
      vertex 10 0 12.3517
      vertex 7.81293 3.01025 13.9672
    endloop
  endfacet
  facet normal 0.387978 -0.200845 0.899519
    outer loop
      vertex 5.4 0 14.3358
      vertex 4.93804 -6.9672 12.9794
      vertex 7.81293 3.01025 13.9672
    endloop
  endfacet
  facet normal 0.387978 -0.200845 0.899519
    outer loop
      vertex 3.97742 4.32328 15.9147
      vertex 4.52745 2.93274 15.3669
      vertex 7.81293 3.01025 13.9672
    endloop
  endfacet
  facet normal 0.387978 -0.200845 0.899519
    outer loop
      vertex 4.52745 2.93274 15.3669
      vertex 4.54277 2.91946 15.3574
      vertex 7.81293 3.01025 13.9672
    endloop
  endfacet
  facet normal 0.387978 -0.200845 0.899519
    outer loop
      vertex 4.54277 2.91946 15.3574
      vertex 4.57178 2.82065 15.3228
      vertex 7.81293 3.01025 13.9672
    endloop
  endfacet
  facet normal 0.387978 -0.200845 0.899519
    outer loop
      vertex 4.57178 2.82065 15.3228
      vertex 4.87697 2.04909 15.0189
      vertex 7.81293 3.01025 13.9672
    endloop
  endfacet
  facet normal 0.387978 -0.200845 0.899519
    outer loop
      vertex 4.87697 2.04909 15.0189
      vertex 5.4 0 14.3358
      vertex 7.81293 3.01025 13.9672
    endloop
  endfacet
  facet normal 0.387978 -0.200845 0.899519
    outer loop
      vertex 4.52179 -2.93764 14.0586
      vertex 4.93804 -6.9672 12.9794
      vertex 4.54277 -2.91946 14.0537
    endloop
  endfacet
  facet normal 0.387978 -0.200845 0.899519
    outer loop
      vertex 3.4064 -6.44286 13.7571
      vertex 4.93804 -6.9672 12.9794
      vertex 4.52179 -2.93764 14.0586
    endloop
  endfacet
  facet normal 0.387978 -0.200845 0.899519
    outer loop
      vertex 4.82848 1.94641 15.0169
      vertex 5.4 0 14.3358
      vertex 4.87697 2.04909 15.0189
    endloop
  endfacet
  facet normal 0.387978 -0.200845 0.899519
    outer loop
      vertex 5.4 0 14.3358
      vertex 4.54277 -2.91946 14.0537
      vertex 4.93804 -6.9672 12.9794
    endloop
  endfacet
  facet normal 0.0402877 0.852869 -0.520569
    outer loop
      vertex 6.14467 5.30641 40
      vertex 6.32968 5.05177 39.5971
      vertex 2.25316 5.49024 40
    endloop
  endfacet
  facet normal 0.0402877 0.852869 -0.520569
    outer loop
      vertex 4.54277 2.91946 35.9654
      vertex 6.32968 5.05177 39.5971
      vertex 4.87166 1.79936 34.1557
    endloop
  endfacet
  facet normal 0.0402877 0.852869 -0.520569
    outer loop
      vertex 2.25316 5.49024 40
      vertex 6.32968 5.05177 39.5971
      vertex 4.54277 2.91946 35.9654
    endloop
  endfacet
  facet normal 0.0402877 0.852869 -0.520569
    outer loop
      vertex 2.25316 5.49024 40
      vertex 4.54277 2.91946 35.9654
      vertex 3.77196 3.58737 37
    endloop
  endfacet
  facet normal 0.0402877 0.852869 -0.520569
    outer loop
      vertex 1.44931 3.69709 37
      vertex 2.25316 5.49024 40
      vertex 3.77196 3.58737 37
    endloop
  endfacet
  facet normal -0.595035 0.75 -0.288849
    outer loop
      vertex 7.79596 3.0336 31.3363
      vertex 6.19227 -0.543774 25.3513
      vertex 6.32968 5.05177 39.5971
    endloop
  endfacet
  facet normal -0.595035 0.75 -0.288849
    outer loop
      vertex 6.32968 5.05177 39.5971
      vertex 6.19227 -0.543774 25.3513
      vertex 5.95359 0.196552 27.7652
    endloop
  endfacet
  facet normal -0.595035 0.75 -0.288849
    outer loop
      vertex 6.32968 5.05177 39.5971
      vertex 5.95359 0.196552 27.7652
      vertex 5.38659 0.0456684 28.5415
    endloop
  endfacet
  facet normal -0.595035 0.75 -0.288849
    outer loop
      vertex 6.32968 5.05177 39.5971
      vertex 5.38659 0.0456684 28.5415
      vertex 4.87166 1.79936 34.1557
    endloop
  endfacet
  facet normal -0.951934 0.296198 0.0780272
    outer loop
      vertex 7.79596 3.0336 31.3363
      vertex 7.39987 3.57877 24.4345
      vertex 6.19227 -0.543774 25.3513
    endloop
  endfacet
  facet normal -0.951934 0.296198 0.0780272
    outer loop
      vertex 6.19227 -0.543774 25.3513
      vertex 7.39987 3.57877 24.4345
      vertex 6.02308 0.507531 19.2962
    endloop
  endfacet
  facet normal -0.951934 0.296198 0.0780272
    outer loop
      vertex 6.19227 -0.543774 25.3513
      vertex 6.02308 0.507531 19.2962
      vertex 5.90468 -0.149569 20.3461
    endloop
  endfacet
  facet normal -0.863413 -0.296198 0.408393
    outer loop
      vertex 6.02308 0.507531 19.2962
      vertex 7.39987 3.57877 24.4345
      vertex 4.95371 2.05746 18.1595
    endloop
  endfacet
  facet normal -0.863413 -0.296198 0.408393
    outer loop
      vertex 4.95371 2.05746 18.1595
      vertex 7.39987 3.57877 24.4345
      vertex 5.32674 6.43219 22.121
    endloop
  endfacet
  facet normal -0.863413 -0.296198 0.408393
    outer loop
      vertex 4.95371 2.05746 18.1595
      vertex 5.32674 6.43219 22.121
      vertex 4.19588 3.90959 17.9006
    endloop
  endfacet
  facet normal -0.370891 -0.75 0.547668
    outer loop
      vertex 3.70158 5.22013 19.3606
      vertex 4.19588 3.90959 17.9006
      vertex 5.32674 6.43219 22.121
    endloop
  endfacet
  facet normal -0.370891 -0.75 0.547668
    outer loop
      vertex 2.06136 9.17629 23.6676
      vertex 3.70158 5.22013 19.3606
      vertex 3.09017 9.51057 24.8221
    endloop
  endfacet
  facet normal -0.370891 -0.75 0.547668
    outer loop
      vertex 3.09017 9.51057 24.8221
      vertex 3.70158 5.22013 19.3606
      vertex 5.32674 6.43219 22.121
    endloop
  endfacet
  facet normal -0.370891 -0.75 0.547668
    outer loop
      vertex 0.850627 6.47549 19.149
      vertex 3.70158 5.22013 19.3606
      vertex 2.06136 9.17629 23.6676
    endloop
  endfacet
  facet normal 0.501069 -0.677086 -0.538967
    outer loop
      vertex -1.81122 7.91801 18.399
      vertex -1.1965 6.54674 20.6931
      vertex -2.59006 5.85134 20.2712
    endloop
  endfacet
  facet normal 0.501069 -0.677086 -0.538967
    outer loop
      vertex -5.6101 3.87262 19.9493
      vertex -1.81122 7.91801 18.399
      vertex -2.65275 6.59302 19.2812
    endloop
  endfacet
  facet normal 0.501069 -0.677086 -0.538967
    outer loop
      vertex -2.65275 6.59302 19.2812
      vertex -1.81122 7.91801 18.399
      vertex -2.59006 5.85134 20.2712
    endloop
  endfacet
  facet normal 0.501069 -0.677086 -0.538967
    outer loop
      vertex -6.71004 6.32628 15.8442
      vertex -1.81122 7.91801 18.399
      vertex -5.6101 3.87262 19.9493
    endloop
  endfacet
  facet normal -0.341104 -0.844312 -0.413261
    outer loop
      vertex 1.94503 9.13849 12.8051
      vertex 3.70158 5.22013 19.3606
      vertex 0.850627 6.47549 19.149
    endloop
  endfacet
  facet normal -0.341104 -0.844312 -0.413261
    outer loop
      vertex -1.1965 6.54674 20.6931
      vertex 1.94503 9.13849 12.8051
      vertex 0.850627 6.47549 19.149
    endloop
  endfacet
  facet normal -0.341104 -0.844312 -0.413261
    outer loop
      vertex -1.1965 6.54674 20.6931
      vertex -1.81122 7.91801 18.399
      vertex 1.94503 9.13849 12.8051
    endloop
  endfacet
  facet normal -0.926418 -0.375755 0.023638
    outer loop
      vertex 4.19588 3.90959 17.9006
      vertex 3.97742 4.32328 15.9147
      vertex 4.95371 2.05746 18.1595
    endloop
  endfacet
  facet normal -0.926418 -0.375755 0.023638
    outer loop
      vertex 4.52745 2.93274 15.3669
      vertex 3.97742 4.32328 15.9147
      vertex 4.45124 2.99877 13.43
    endloop
  endfacet
  facet normal -0.926418 -0.375755 0.023638
    outer loop
      vertex 1.94503 9.13849 12.8051
      vertex 3.97742 4.32328 15.9147
      vertex 3.70158 5.22013 19.3606
    endloop
  endfacet
  facet normal -0.926418 -0.375755 0.023638
    outer loop
      vertex 3.97742 4.32328 15.9147
      vertex 4.19588 3.90959 17.9006
      vertex 3.70158 5.22013 19.3606
    endloop
  endfacet
  facet normal -0.926418 -0.375755 0.023638
    outer loop
      vertex 4.45124 2.99877 13.43
      vertex 3.97742 4.32328 15.9147
      vertex 1.94503 9.13849 12.8051
    endloop
  endfacet
  facet normal -0.926418 -0.375755 0.023638
    outer loop
      vertex 4.45124 2.99877 13.43
      vertex 1.94503 9.13849 12.8051
      vertex 1.73018 9.06868 3.27489
    endloop
  endfacet
  facet normal 0.295175 -0.852869 0.430682
    outer loop
      vertex -2.59006 5.85134 20.2712
      vertex -1.1965 6.54674 20.6931
      vertex 2.06136 9.17629 23.6676
    endloop
  endfacet
  facet normal 0.295175 -0.852869 0.430682
    outer loop
      vertex 2.06136 9.17629 23.6676
      vertex -1.1965 6.54674 20.6931
      vertex 0.850627 6.47549 19.149
    endloop
  endfacet
  facet normal 0.295175 -0.852869 0.430682
    outer loop
      vertex -2.59006 5.85134 20.2712
      vertex 2.06136 9.17629 23.6676
      vertex -2.07661 7.83178 23.8411
    endloop
  endfacet
  facet normal 0.295175 -0.852869 0.430682
    outer loop
      vertex -2.59006 5.85134 20.2712
      vertex -2.07661 7.83178 23.8411
      vertex -2.9498 5.88395 20.5823
    endloop
  endfacet
  facet normal 0.823125 -0.55667 0.112176
    outer loop
      vertex -2.9498 5.88395 20.5823
      vertex -2.07661 7.83178 23.8411
      vertex -3.15439 7.48158 30.0118
    endloop
  endfacet
  facet normal 0.823125 -0.55667 0.112176
    outer loop
      vertex -4.61096 4.23241 24.5758
      vertex -2.9498 5.88395 20.5823
      vertex -3.15439 7.48158 30.0118
    endloop
  endfacet
  facet normal 0.965926 3.636e-018 -0.258819
    outer loop
      vertex -3.15439 7.48158 30.0118
      vertex -0.667673 8.28957 39.2924
      vertex -2.30152 4.64493 33.1948
    endloop
  endfacet
  facet normal 0.965926 3.636e-018 -0.258819
    outer loop
      vertex -4.23777 2.98946 25.9686
      vertex -3.15439 7.48158 30.0118
      vertex -3.53625 4.08105 28.5867
    endloop
  endfacet
  facet normal 0.965926 3.636e-018 -0.258819
    outer loop
      vertex -3.53625 4.08105 28.5867
      vertex -3.15439 7.48158 30.0118
      vertex -2.30152 4.64493 33.1948
    endloop
  endfacet
  facet normal 0.965926 3.636e-018 -0.258819
    outer loop
      vertex -4.61096 4.23241 24.5758
      vertex -3.15439 7.48158 30.0118
      vertex -4.23777 2.98946 25.9686
    endloop
  endfacet
  facet normal 0.656759 0.55667 -0.508709
    outer loop
      vertex -0.667673 8.28957 39.2924
      vertex -0.237918 8.4292 40
      vertex 2.25316 5.49024 40
    endloop
  endfacet
  facet normal 0.656759 0.55667 -0.508709
    outer loop
      vertex 0.166442 5.21061 37
      vertex -0.667673 8.28957 39.2924
      vertex 1.44931 3.69709 37
    endloop
  endfacet
  facet normal 0.656759 0.55667 -0.508709
    outer loop
      vertex 1.44931 3.69709 37
      vertex -0.667673 8.28957 39.2924
      vertex 2.25316 5.49024 40
    endloop
  endfacet
  facet normal 0.656759 0.55667 -0.508709
    outer loop
      vertex -0.7685 5.34504 35.9401
      vertex -0.667673 8.28957 39.2924
      vertex 0.166442 5.21061 37
    endloop
  endfacet
  facet normal 0.656759 0.55667 -0.508709
    outer loop
      vertex -2.30152 4.64493 33.1948
      vertex -0.667673 8.28957 39.2924
      vertex -0.7685 5.34504 35.9401
    endloop
  endfacet
  facet normal -0.654861 -0.75575 0
    outer loop
      vertex 4.54277 2.91946 3
      vertex 4.54277 2.91946 15.3574
      vertex 4.52745 2.93274 15.3669
    endloop
  endfacet
  facet normal -0.654861 -0.75575 0
    outer loop
      vertex 2.24324 4.91201 7.74612
      vertex 4.54277 2.91946 3
      vertex 4.45124 2.99877 13.43
    endloop
  endfacet
  facet normal -0.654861 -0.75575 0
    outer loop
      vertex 4.45124 2.99877 13.43
      vertex 4.54277 2.91946 3
      vertex 4.52745 2.93274 15.3669
    endloop
  endfacet
  facet normal -0.654861 -0.75575 0
    outer loop
      vertex 2.24324 4.91201 3
      vertex 4.54277 2.91946 3
      vertex 2.24324 4.91201 7.74612
    endloop
  endfacet
  facet normal -0.142315 -0.989821 0
    outer loop
      vertex 2.24324 4.91201 3
      vertex 2.24324 4.91201 7.74612
      vertex -0.177189 5.26002 3
    endloop
  endfacet
  facet normal 0.841254 -0.540641 0
    outer loop
      vertex -3.68468 3.85009 3
      vertex -5.07425 1.68788 6.22119
      vertex -5.18126 1.52136 3
    endloop
  endfacet
  facet normal 0.841254 -0.540641 0
    outer loop
      vertex -5.18126 1.52136 3
      vertex -5.07425 1.68788 6.22119
      vertex -5.18126 1.52136 7.09077
    endloop
  endfacet
  facet normal 0.841254 0.540641 0
    outer loop
      vertex -5.18126 -1.52136 37
      vertex -3.53625 -4.08105 37
      vertex -3.53625 -4.08105 27.689
    endloop
  endfacet
  facet normal 0.841254 0.540641 0
    outer loop
      vertex -5.11324 -1.6272 22.7013
      vertex -5.18126 -1.52136 37
      vertex -4.8966 -1.9643 22.6121
    endloop
  endfacet
  facet normal 0.841254 0.540641 0
    outer loop
      vertex -4.8966 -1.9643 22.6121
      vertex -5.18126 -1.52136 37
      vertex -3.53625 -4.08105 27.689
    endloop
  endfacet
  facet normal 0.841254 0.540641 0
    outer loop
      vertex -5.15485 -1.56245 22.546
      vertex -5.18126 -1.52136 37
      vertex -5.11324 -1.6272 22.7013
    endloop
  endfacet
  facet normal 0.841254 0.540641 0
    outer loop
      vertex -5.18126 -1.52136 22.6324
      vertex -5.18126 -1.52136 37
      vertex -5.15485 -1.56245 22.546
    endloop
  endfacet
  facet normal 1 0 0
    outer loop
      vertex -5.18126 1.36557 29.2099
      vertex -5.18126 1.52136 28.9889
      vertex -5.18126 1.52136 37
    endloop
  endfacet
  facet normal 1 0 0
    outer loop
      vertex -5.18126 -1.52136 22.6324
      vertex -5.18126 1.36557 29.2099
      vertex -5.18126 -1.52136 37
    endloop
  endfacet
  facet normal 1 0 0
    outer loop
      vertex -5.18126 -1.52136 37
      vertex -5.18126 1.36557 29.2099
      vertex -5.18126 1.52136 37
    endloop
  endfacet
  facet normal 0.841254 -0.540641 0
    outer loop
      vertex -4.23777 2.98946 25.9686
      vertex -3.53625 4.08105 28.5867
      vertex -3.53625 4.08105 37
    endloop
  endfacet
  facet normal 0.841254 -0.540641 0
    outer loop
      vertex -5.18126 1.52136 28.9889
      vertex -4.23777 2.98946 25.9686
      vertex -5.18126 1.52136 37
    endloop
  endfacet
  facet normal 0.841254 -0.540641 0
    outer loop
      vertex -5.18126 1.52136 37
      vertex -4.23777 2.98946 25.9686
      vertex -3.53625 4.08105 37
    endloop
  endfacet
  facet normal 0.501069 -0.677086 -0.538967
    outer loop
      vertex -0.7685 -5.34504 36.0303
      vertex 0.526072 -5.1589 37
      vertex 3.97676 -4.9933 40
    endloop
  endfacet
  facet normal 0.501069 -0.677086 -0.538967
    outer loop
      vertex 3.97676 -4.9933 40
      vertex 0.526072 -5.1589 37
      vertex 3.17291 -3.20014 37
    endloop
  endfacet
  facet normal 0.501069 -0.677086 -0.538967
    outer loop
      vertex -0.7685 -5.34504 36.0303
      vertex 3.97676 -4.9933 40
      vertex -0.237527 -8.11202 40
    endloop
  endfacet
  facet normal 0.501069 -0.677086 -0.538967
    outer loop
      vertex -0.7685 -5.34504 36.0303
      vertex -0.237527 -8.11202 40
      vertex -1.66056 -4.93765 34.6892
    endloop
  endfacet
  facet normal -0.959493 -0.281732 0
    outer loop
      vertex 5.4 0 14.3358
      vertex 4.82848 1.94641 15.0169
      vertex 5.4 0 3
    endloop
  endfacet
  facet normal -0.959493 -0.281732 0
    outer loop
      vertex 5.4 0 3
      vertex 4.82848 1.94641 15.0169
      vertex 4.64904 2.55755 14.1682
    endloop
  endfacet
  facet normal -0.959493 -0.281732 0
    outer loop
      vertex 4.64904 2.55755 14.1682
      vertex 4.57178 2.82065 15.3228
      vertex 4.54277 2.91946 15.3574
    endloop
  endfacet
  facet normal -0.959493 -0.281732 0
    outer loop
      vertex 4.64904 2.55755 14.1682
      vertex 4.54277 2.91946 15.3574
      vertex 5.4 0 3
    endloop
  endfacet
  facet normal -0.959493 -0.281732 0
    outer loop
      vertex 5.4 0 3
      vertex 4.54277 2.91946 15.3574
      vertex 4.54277 2.91946 3
    endloop
  endfacet
  facet normal -0.959493 0.281732 0
    outer loop
      vertex 5.4 0 14.3358
      vertex 5.4 0 3
      vertex 4.54277 -2.91946 14.0537
    endloop
  endfacet
  facet normal -0.959493 0.281732 0
    outer loop
      vertex 4.54277 -2.91946 14.0537
      vertex 5.4 0 3
      vertex 4.54277 -2.91946 3
    endloop
  endfacet
  facet normal 0.415415 0.909632 0
    outer loop
      vertex -0.7685 -5.34504 37
      vertex -0.7685 -5.34504 36.0303
      vertex -3.53625 -4.08105 37
    endloop
  endfacet
  facet normal 0.415415 0.909632 0
    outer loop
      vertex -3.53625 -4.08105 37
      vertex -0.7685 -5.34504 36.0303
      vertex -1.66056 -4.93765 34.6892
    endloop
  endfacet
  facet normal 0.415415 0.909632 0
    outer loop
      vertex -3.53625 -4.08105 37
      vertex -1.66056 -4.93765 34.6892
      vertex -3.53625 -4.08105 27.689
    endloop
  endfacet
  facet normal 0 0 -1
    outer loop
      vertex -3.53625 4.08105 37
      vertex -0.7685 5.34504 37
      vertex -5.18126 1.52136 37
    endloop
  endfacet
  facet normal 0 0 -1
    outer loop
      vertex -5.18126 1.52136 37
      vertex -0.7685 5.34504 37
      vertex 0.166442 5.21061 37
    endloop
  endfacet
  facet normal 0 0 -1
    outer loop
      vertex -5.18126 1.52136 37
      vertex 0.166442 5.21061 37
      vertex 1.44931 3.69709 37
    endloop
  endfacet
  facet normal 0 0 -1
    outer loop
      vertex -5.18126 1.52136 37
      vertex 1.44931 3.69709 37
      vertex 3.77196 3.58737 37
    endloop
  endfacet
  facet normal 0 0 -1
    outer loop
      vertex -5.18126 1.52136 37
      vertex 3.77196 3.58737 37
      vertex 4.54277 2.91946 37
    endloop
  endfacet
  facet normal 0 0 -1
    outer loop
      vertex -5.18126 1.52136 37
      vertex 4.54277 2.91946 37
      vertex 5.4 0 37
    endloop
  endfacet
  facet normal 0 0 -1
    outer loop
      vertex -5.18126 1.52136 37
      vertex 5.4 0 37
      vertex 4.54277 -2.91946 37
    endloop
  endfacet
  facet normal 0 0 -1
    outer loop
      vertex -5.18126 1.52136 37
      vertex 4.54277 -2.91946 37
      vertex 3.88625 -3.48834 37
    endloop
  endfacet
  facet normal 0 0 -1
    outer loop
      vertex -5.18126 1.52136 37
      vertex 3.88625 -3.48834 37
      vertex 3.17291 -3.20014 37
    endloop
  endfacet
  facet normal 0 0 -1
    outer loop
      vertex -5.18126 1.52136 37
      vertex 3.17291 -3.20014 37
      vertex 0.526072 -5.1589 37
    endloop
  endfacet
  facet normal 0 0 -1
    outer loop
      vertex -5.18126 1.52136 37
      vertex 0.526072 -5.1589 37
      vertex -0.7685 -5.34504 37
    endloop
  endfacet
  facet normal 0 0 -1
    outer loop
      vertex -5.18126 1.52136 37
      vertex -0.7685 -5.34504 37
      vertex -3.53625 -4.08105 37
    endloop
  endfacet
  facet normal 0 0 -1
    outer loop
      vertex -5.18126 1.52136 37
      vertex -3.53625 -4.08105 37
      vertex -5.18126 -1.52136 37
    endloop
  endfacet
  facet normal -0.654861 0.75575 0
    outer loop
      vertex 4.54277 -2.91946 37
      vertex 4.54277 -2.91946 35.2959
      vertex 3.88625 -3.48834 37
    endloop
  endfacet
  facet normal -0.959493 -0.281732 0
    outer loop
      vertex 5.38659 0.0456684 28.5415
      vertex 5.4 0 28.6237
      vertex 4.87166 1.79936 34.1557
    endloop
  endfacet
  facet normal -0.959493 -0.281732 0
    outer loop
      vertex 4.87166 1.79936 34.1557
      vertex 5.4 0 28.6237
      vertex 5.4 0 37
    endloop
  endfacet
  facet normal -0.959493 -0.281732 0
    outer loop
      vertex 4.87166 1.79936 34.1557
      vertex 5.4 0 37
      vertex 4.54277 2.91946 37
    endloop
  endfacet
  facet normal -0.959493 -0.281732 0
    outer loop
      vertex 4.87166 1.79936 34.1557
      vertex 4.54277 2.91946 37
      vertex 4.54277 2.91946 35.9654
    endloop
  endfacet
  facet normal -0.959493 0.281732 0
    outer loop
      vertex 5.4 0 37
      vertex 5.4 0 28.6237
      vertex 4.54277 -2.91946 37
    endloop
  endfacet
  facet normal -0.959493 0.281732 0
    outer loop
      vertex 4.54277 -2.91946 37
      vertex 5.4 0 28.6237
      vertex 4.54277 -2.91946 35.2959
    endloop
  endfacet
  facet normal -0.81412 0.375755 0.442738
    outer loop
      vertex 4.82848 1.94641 15.0169
      vertex 4.87697 2.04909 15.0189
      vertex 4.64904 2.55755 14.1682
    endloop
  endfacet
  facet normal -0.926418 -0.375755 0.023638
    outer loop
      vertex 4.64904 2.55755 14.1682
      vertex 4.87697 2.04909 15.0189
      vertex 4.57178 2.82065 15.3228
    endloop
  endfacet
  facet normal -0.654861 -0.75575 0
    outer loop
      vertex 4.54277 2.91946 35.9654
      vertex 4.54277 2.91946 37
      vertex 3.77196 3.58737 37
    endloop
  endfacet
  facet normal 0.415415 -0.909632 0
    outer loop
      vertex -2.30152 4.64493 33.1948
      vertex -0.7685 5.34504 35.9401
      vertex -0.7685 5.34504 37
    endloop
  endfacet
  facet normal 0.415415 -0.909632 0
    outer loop
      vertex -3.53625 4.08105 28.5867
      vertex -2.30152 4.64493 33.1948
      vertex -3.53625 4.08105 37
    endloop
  endfacet
  facet normal 0.415415 -0.909632 0
    outer loop
      vertex -3.53625 4.08105 37
      vertex -2.30152 4.64493 33.1948
      vertex -0.7685 5.34504 37
    endloop
  endfacet
  facet normal -0.142315 -0.989821 0
    outer loop
      vertex 0.166442 5.21061 37
      vertex -0.7685 5.34504 37
      vertex -0.7685 5.34504 35.9401
    endloop
  endfacet
  facet normal -0.142315 0.989821 0
    outer loop
      vertex -0.7685 -5.34504 37
      vertex 0.526072 -5.1589 37
      vertex -0.7685 -5.34504 36.0303
    endloop
  endfacet
endsolid OpenSCAD_Model
